<?xml version="1.0" encoding="UTF-8" standalone="no"?>
<svg
   xmlns:dc="http://purl.org/dc/elements/1.1/"
   xmlns:cc="http://creativecommons.org/ns#"
   xmlns:rdf="http://www.w3.org/1999/02/22-rdf-syntax-ns#"
   xmlns:svg="http://www.w3.org/2000/svg"
   xmlns="http://www.w3.org/2000/svg"
   xmlns:sodipodi="http://sodipodi.sourceforge.net/DTD/sodipodi-0.dtd"
   xmlns:inkscape="http://www.inkscape.org/namespaces/inkscape"
   inkscape:version="1.0beta1 (32d4812, 2019-09-19)"
   sodipodi:docname="Icon-filled-inkscape.svg"
   id="svg104"
   x="0px"
   y="0px"
   version="1.1"
   viewBox="0 0 100 100"
   xml:space="preserve"
   fill="#3BB300"
   width="100px"
   height="100px">
  <metadata
     id="metadata110">
    <rdf:RDF>
      <cc:Work
         rdf:about="">
        <dc:format>image/svg+xml</dc:format>
        <dc:type
           rdf:resource="http://purl.org/dc/dcmitype/StillImage" />
      </cc:Work>
    </rdf:RDF>
  </metadata>
  <defs
     id="defs108" />
  <sodipodi:namedview
     inkscape:current-layer="svg104"
     inkscape:window-maximized="0"
     inkscape:window-y="23"
     inkscape:window-x="0"
     inkscape:cy="40.781592"
     inkscape:cx="125.96315"
     inkscape:zoom="2"
     showgrid="false"
     id="namedview106"
     inkscape:window-height="855"
     inkscape:window-width="1440"
     inkscape:pageshadow="2"
     inkscape:pageopacity="0"
     guidetolerance="10"
     gridtolerance="10"
     objecttolerance="10"
     borderopacity="1"
     inkscape:document-rotation="0"
     bordercolor="#666666"
     pagecolor="#ffffff" />
  <path
     id="path965"
     d="m 2.5,66.37859 v 15.673 c 0.026078,0.07824 0.041969,0.16051 0.056871,0.24434 1.0562,6.4433 18.501,13.342 42.786,13.342 4.6253,0 9.1528,-0.25436 13.508,-0.74986 -0.12108,-0.13784 -0.22808,-0.28577 -0.34544,-0.42548 -0.1453,-0.17137 -0.28577,-0.34752 -0.42548,-0.52448 -0.34,-0.426 -0.667,-0.857 -0.976,-1.303 -0.123,-0.178 -0.241,-0.358 -0.361,-0.541 -0.298,-0.454 -0.576,-0.921 -0.842,-1.394 -0.11,-0.198 -0.222,-0.397 -0.329,-0.596 -0.246,-0.47 -0.472,-0.946 -0.686,-1.431 -0.101,-0.223 -0.198,-0.447 -0.291,-0.676 -0.192,-0.473 -0.367,-0.952 -0.529,-1.434 -0.08569,-0.2552 -0.17428,-0.50754 -0.25065,-0.7646 -0.14157,-0.47873 -0.25708,-0.96087 -0.37072,-1.4471 -0.06333,-0.27196 -0.13555,-0.53711 -0.18957,-0.81094 -0.10245,-0.51599 -0.17306,-1.0439 -0.24012,-1.5692 -0.03167,-0.24775 -0.07688,-0.48996 -0.1011,-0.74143 -0.07451,-0.77864 -0.12006,-1.5653 -0.12006,-2.357 0,-0.68364 0.03355,-1.3816 0.09689,-2.0895 -0.58305,0.03539 -1.1718,0.05396 -1.7567,0.08004 -0.4452,0.02049 -0.886,0.04408 -1.3312,0.05898 -1.4865,0.05216 -2.9766,0.08636 -4.4612,0.08636 -20.313,0 -34.336,-4.1158 -41.362,-9.4153 -0.49922,-0.3651 -0.94328,-0.74292 -1.3754,-1.1248 -0.03353,-0.0298 -0.071787,-0.06076 -0.10532,-0.09057 z"
     style="fill:#70208f;fill-opacity:1" />
  <path
     inkscape:connector-curvature="0"
     id="path963"
     d="m 77.01046,58.38289 c -0.66501,-1e-6 -1.3172,0.03729 -1.9673,0.09689 -0.22167,0.02049 -0.44182,0.06052 -0.6635,0.08847 -0.42285,0.05588 -0.84395,0.11158 -1.2575,0.19168 -0.25334,0.05029 -0.50024,0.11287 -0.74986,0.17061 -0.37442,0.08755 -0.74939,0.17632 -1.1164,0.28436 -0.25147,0.07265 -0.49789,0.15395 -0.74564,0.23591 -0.36324,0.12294 -0.72452,0.25653 -1.0784,0.3981 -0.23098,0.09314 -0.45941,0.18588 -0.68667,0.28646 -0.37069,0.16392 -0.73578,0.34241 -1.0953,0.52869 -0.19186,0.09873 -0.38924,0.19502 -0.57924,0.30121 -0.41353,0.23098 -0.81202,0.47805 -1.2069,0.73511 -0.12294,0.0801 -0.25385,0.15395 -0.37493,0.23591 -1.0599,0.72462 -2.0499,1.542 -2.9552,2.4455 l -0.03159,0.03159 c -0.42844,0.4303 -0.83422,0.88236 -1.2217,1.3481 -0.10059,0.12108 -0.19406,0.24777 -0.29278,0.37072 -0.285,0.35765 -0.56068,0.72112 -0.82147,1.0974 -0.13226,0.19187 -0.25433,0.38786 -0.37914,0.58346 -0.20304,0.31667 -0.40139,0.63475 -0.58767,0.9626 -0.14343,0.2552 -0.28083,0.51434 -0.41495,0.77513 -0.13971,0.27196 -0.27143,0.54813 -0.3981,0.82568 -0.14716,0.3204 -0.29087,0.64974 -0.42127,0.97945 -0.08382,0.21608 -0.15768,0.43292 -0.23591,0.65086 -0.13971,0.39677 -0.28074,0.79923 -0.3981,1.209 -0.03725,0.13598 -0.06571,0.27054 -0.1011,0.40652 -0.12853,0.48991 -0.25231,0.98016 -0.34544,1.485 -0.11922,0.63893 -0.20579,1.2594 -0.2654,1.8704 -0.05775,0.62589 -0.099,1.2568 -0.099,1.8957 0,0.73952 0.04604,1.4728 0.12427,2.2011 0.02607,0.24589 0.07413,0.48218 0.10953,0.72247 0.06706,0.475 0.13954,0.94766 0.24012,1.4134 0.06333,0.29618 0.14479,0.58564 0.22116,0.87624 0.10432,0.39491 0.21245,0.78999 0.33912,1.1774 0.10618,0.31853 0.22436,0.63256 0.34544,0.94364 0.1304,0.34275 0.26828,0.68206 0.41916,1.0174 0.1453,0.32598 0.30344,0.64803 0.4655,0.9647 0.15834,0.30736 0.32175,0.60582 0.49499,0.90572 0.18255,0.31481 0.36729,0.62972 0.5666,0.93521 0.19,0.29245 0.39775,0.57624 0.60452,0.85938 0.20863,0.285 0.41023,0.57081 0.6319,0.84464 0.26079,0.32226 0.54441,0.62996 0.82568,0.93732 0.19186,0.21049 0.37385,0.43097 0.57503,0.63401 0.49177,0.49363 1.0129,0.96653 1.5587,1.4155 3.5355,2.8966 8.051,4.6424 12.969,4.6424 11.298,0 20.49,-9.1928 20.49,-20.49 0,-6.9463 -3.4841,-13.087 -8.7855,-16.794 -0.27383,-0.19186 -0.55284,-0.37068 -0.83411,-0.54765 -0.22726,-0.14343 -0.45382,-0.27872 -0.68667,-0.41284 -0.27196,-0.15647 -0.54392,-0.30943 -0.82147,-0.45286 -0.27941,-0.14343 -0.5662,-0.27848 -0.85306,-0.41074 -0.24775,-0.11363 -0.48996,-0.23059 -0.74143,-0.33491 -0.5253,-0.21608 -1.0592,-0.41654 -1.605,-0.58977 -0.14716,-0.04471 -0.29752,-0.07932 -0.44654,-0.12217 -0.44148,-0.12853 -0.88933,-0.24672 -1.3438,-0.34544 -0.20677,-0.04471 -0.41039,-0.08095 -0.61716,-0.12006 -0.42658,-0.07823 -0.85951,-0.14583 -1.2954,-0.198 -0.19373,-0.02421 -0.38552,-0.05064 -0.57924,-0.0674 -0.6203,-0.05589 -1.2458,-0.09479 -1.881,-0.09479 z"
     style="opacity:1;fill:#3bb300;fill-opacity:1" />
  <path
     id="path961"
     d="m 2.5,44.02689 v 15.288 c 0,0.30177 0.074552,0.60631 0.14534,0.90994 0.052157,0.21981 0.12543,0.43972 0.21485,0.66139 0.078236,0.18814 0.16926,0.37636 0.27172,0.5645 0.12294,0.22539 0.26131,0.45074 0.42337,0.67613 0.12667,0.17696 0.26593,0.35148 0.41495,0.52658 0.2049,0.2403 0.41996,0.48007 0.66771,0.72037 0.15461,0.15088 0.32361,0.30384 0.49499,0.45286 0.30177,0.26265 0.62082,0.52253 0.97102,0.78145 0.15461,0.11549 0.32288,0.22995 0.48867,0.34544 0.41726,0.28687 0.85434,0.57154 1.3312,0.85096 0.13226,0.07824 0.27475,0.15557 0.41074,0.2338 0.54952,0.30922 1.1237,0.61821 1.744,0.91626 0.08755,0.04285 0.17996,0.08329 0.2675,0.12427 0.69109,0.32785 1.4173,0.64519 2.1885,0.95628 0.0298,0.01304 0.061,0.02277 0.09268,0.03581 4.2266,1.6858 9.6275,3.1062 15.922,4.0357 0.04285,0.0056 0.09009,0.01335 0.1348,0.01896 1.2127,0.17696 2.4588,0.33633 3.7366,0.47603 0.22167,0.02422 0.45682,0.03686 0.68035,0.06108 1.1158,0.11549 2.2436,0.22159 3.4059,0.30542 0.54393,0.03912 1.1129,0.06311 1.6661,0.09479 0.8755,0.05029 1.7435,0.10549 2.6413,0.13902 1.4809,0.05216 2.9881,0.08425 4.5286,0.08425 1.4884,0 2.9815,-0.03582 4.4718,-0.08425 0.49736,-0.01863 0.98972,-0.0495 1.4871,-0.07372 0.74511,-0.03538 1.4892,-0.08029 2.2306,-0.13059 0.03539,-0.1453 0.08516,-0.28205 0.12427,-0.42548 0.12108,-0.4452 0.24438,-0.89086 0.38967,-1.3249 0.10059,-0.30363 0.21893,-0.59715 0.3307,-0.89519 0.13971,-0.3651 0.26666,-0.73529 0.42127,-1.0911 0.26451,-0.61285 0.55884,-1.2137 0.86992,-1.7967 0.02793,-0.0503 0.04789,-0.10348 0.07583,-0.15376 0.3502,-0.64638 0.73531,-1.2671 1.1395,-1.8725 0.08196,-0.12294 0.17549,-0.24145 0.26119,-0.3644 0.34275,-0.49177 0.69374,-0.96848 1.07,-1.4323 0.1099,-0.13598 0.2297,-0.26609 0.34333,-0.4002 0.37069,-0.43961 0.75588,-0.86453 1.1564,-1.2743 0.12481,-0.12853 0.24826,-0.25434 0.37493,-0.37914 0.41726,-0.40795 0.8502,-0.79719 1.2954,-1.1753 0.12294,-0.10432 0.23748,-0.21115 0.36229,-0.31174 0.50854,-0.41354 1.0332,-0.80886 1.5734,-1.1795 0.06892,-0.04843 0.13329,-0.09877 0.20221,-0.14534 0.62775,-0.42099 1.2731,-0.8142 1.9399,-1.1774 0.04844,-0.02608 0.09876,-0.04763 0.14534,-0.07372 0.58863,-0.31481 1.1907,-0.60775 1.8072,-0.87413 0.21794,-0.095 0.44604,-0.17364 0.66771,-0.26119 0.45638,-0.18069 0.91655,-0.35512 1.386,-0.50973 0.26824,-0.08941 0.54319,-0.16821 0.81515,-0.24644 0.44706,-0.13039 0.89589,-0.24533 1.3523,-0.34965 0.27942,-0.0652 0.55964,-0.13134 0.84464,-0.18536 0.49177,-0.095 0.9902,-0.16625 1.4913,-0.22959 0.24961,-0.0298 0.49417,-0.07056 0.74564,-0.09479 0.75628,-0.07265 1.5186,-0.11585 2.2917,-0.11585 0.92021,0 1.8254,0.06557 2.7214,0.16429 0.27755,0.03167 0.55,0.08119 0.82568,0.12217 0.62589,0.09314 1.2444,0.20363 1.8536,0.34333 0.29991,0.06892 0.59504,0.14949 0.89309,0.22959 0.59795,0.16206 1.1858,0.34274 1.7651,0.54765 0.26265,0.095 0.52488,0.18612 0.78566,0.28857 0.69109,0.27196 1.3669,0.57836 2.0263,0.90994 0.10059,0.05216 0.2067,0.08476 0.30542,0.13691 v -13.373 c -0.01303,0.01305 -0.02722,0.02277 -0.04213,0.03581 -0.46383,0.41353 -0.94898,0.82466 -1.4892,1.2196 -7.0431,5.2809 -21.045,9.3753 -41.312,9.3753 -20.313,0 -34.336,-4.1157 -41.362,-9.4153 -0.4975,-0.366 -0.9415,-0.744 -1.3737,-1.126 -0.0335,-0.03 -0.0718,-0.061 -0.1053,-0.091 z"
     style="fill:#70208f;fill-opacity:1" />
  <path
     id="path959"
     d="m 2.5,21.67189 v 15.288 c 0,0.30177 0.074552,0.6063 0.14534,0.90994 0.052157,0.2198 0.12543,0.44183 0.21485,0.6635 0.078236,0.18814 0.16926,0.37425 0.27172,0.56239 0.12294,0.2254 0.26131,0.45285 0.42337,0.67824 0.12667,0.17696 0.26593,0.35148 0.41495,0.52658 0.2049,0.2403 0.41996,0.48007 0.66771,0.72037 0.15461,0.15088 0.32361,0.30174 0.49499,0.45076 0.30177,0.26265 0.62082,0.52463 0.97102,0.78356 0.15461,0.11549 0.32288,0.22995 0.48867,0.34544 0.41726,0.28687 0.85434,0.57154 1.3312,0.85096 0.13226,0.07824 0.27475,0.15346 0.41074,0.2317 0.54952,0.30922 1.1237,0.62031 1.744,0.91836 0.08755,0.04285 0.17996,0.08119 0.2675,0.12217 0.69109,0.32785 1.4173,0.6473 2.1885,0.95838 0.0298,0.01304 0.061,0.02277 0.09268,0.03581 4.2266,1.6858 9.6275,3.1062 15.922,4.0357 0.04285,0.0056 0.09009,0.01124 0.1348,0.01685 1.2127,0.17696 2.4588,0.33633 3.7366,0.47603 0.22167,0.02422 0.45682,0.03897 0.68035,0.06319 1.1158,0.11549 2.2436,0.22159 3.4059,0.30542 0.54393,0.03911 1.1129,0.06312 1.6661,0.09479 0.8755,0.05029 1.7435,0.10338 2.6413,0.13691 1.4809,0.05216 2.9881,0.08425 4.5286,0.08425 1.5405,0 3.0482,-0.0321 4.5328,-0.08425 0.89785,-0.03167 1.7656,-0.08661 2.6392,-0.13691 0.5551,-0.03166 1.1224,-0.05567 1.6682,-0.09479 1.1605,-0.08383 2.2901,-0.18993 3.4059,-0.30542 0.2254,-0.02236 0.46103,-0.03897 0.68456,-0.06319 1.276,-0.13971 2.5156,-0.29907 3.7282,-0.47603 0.0447,-0.0075 0.0943,-0.01546 0.13902,-0.02106 6.2906,-0.92952 11.687,-2.3476 15.913,-4.0315 0.03539,-0.01304 0.07415,-0.02698 0.10953,-0.04002 0.76746,-0.30736 1.4843,-0.62584 2.1716,-0.94996 0.09314,-0.04471 0.19308,-0.08775 0.28436,-0.13059 0.61285,-0.29618 1.1791,-0.60258 1.723,-0.90994 0.14343,-0.0801 0.29185,-0.15816 0.42969,-0.24012 0.47128,-0.27569 0.90503,-0.55964 1.3186,-0.84464 0.16951,-0.11735 0.34111,-0.23254 0.50131,-0.35176 0.34647,-0.2552 0.65824,-0.51621 0.95628,-0.77513 0.1751,-0.15275 0.34718,-0.30457 0.50552,-0.45918 0.24216,-0.23471 0.4581,-0.47116 0.65928,-0.70773 0.15088,-0.18069 0.29695,-0.36039 0.42548,-0.53922 0.15834,-0.22167 0.29201,-0.44393 0.41495,-0.6656 0.10432,-0.19186 0.1977,-0.38316 0.27593,-0.57503 0.08755,-0.21981 0.15637,-0.43713 0.20853,-0.65507 0.07264,-0.30549 0.14744,-0.61052 0.14744,-0.91415 v -15.288 c -0.22353,0.20304 -0.47821,0.40334 -0.72037,0.60452 -0.13598,0.11176 -0.2605,0.22314 -0.4002,0.33491 -0.55883,0.44148 -1.1597,0.87255 -1.8136,1.2954 -0.13598,0.08755 -0.29234,0.17364 -0.43391,0.26119 -0.54765,0.34275 -1.1265,0.67874 -1.7356,1.0047 -0.22353,0.12108 -0.45171,0.23675 -0.68456,0.35597 -0.67991,0.34647 -1.3915,0.6853 -2.1421,1.0131 -0.12294,0.05216 -0.23538,0.10792 -0.36018,0.16008 -0.87178,0.36883 -1.8007,0.72306 -2.7656,1.0658 -0.26638,0.095 -0.54764,0.187 -0.82147,0.28014 -0.76746,0.25892 -1.5587,0.50721 -2.3802,0.74564 -0.29618,0.08755 -0.58735,0.17314 -0.89098,0.25697 -1.0897,0.30177 -2.2123,0.59066 -3.3933,0.85517 -0.16206,0.03725 -0.33949,0.06781 -0.50342,0.10321 -1.0413,0.22726 -2.123,0.43631 -3.2332,0.6319 -0.37628,0.06706 -0.7558,0.13255 -1.1395,0.19589 -1.0581,0.17324 -2.1448,0.33284 -3.2606,0.47814 -0.28687,0.03725 -0.56037,0.08047 -0.85096,0.11585 -1.3859,0.16765 -2.8235,0.31282 -4.2969,0.4339 -0.3651,0.02981 -0.74121,0.0521 -1.11,0.08004 -1.1791,0.08569 -2.3813,0.15475 -3.6145,0.21064 -0.45079,0.01862 -0.898,0.03986 -1.3544,0.05476 -1.6057,0.05402 -3.2421,0.09479 -4.9373,0.09479 -1.6951,0 -3.3297,-0.04077 -4.9373,-0.09479 -0.45824,-0.01492 -0.90756,-0.03427 -1.3565,-0.05476 -1.2332,-0.05588 -2.4374,-0.12494 -3.6166,-0.21064 -0.36883,-0.02608 -0.7468,-0.05023 -1.11,-0.08004 -1.4734,-0.12294 -2.9068,-0.26626 -4.2927,-0.4339 -0.29059,-0.03725 -0.5641,-0.0786 -0.85096,-0.11585 -1.1158,-0.1453 -2.2044,-0.3049 -3.2606,-0.47814 -0.38373,-0.06334 -0.76536,-0.12883 -1.1416,-0.19589 -1.1102,-0.19559 -2.1898,-0.40464 -3.2311,-0.6319 -0.16392,-0.03538 -0.33925,-0.06596 -0.50131,-0.10321 -1.181,-0.26452 -2.3057,-0.5534 -3.3954,-0.85517 -0.30363,-0.08383 -0.5948,-0.17128 -0.89098,-0.25697 -0.82148,-0.2403 -1.6148,-0.48672 -2.3823,-0.74564 -0.27383,-0.09314 -0.55299,-0.18514 -0.81937,-0.28014 -0.96491,-0.34089 -1.8962,-0.69512 -2.7698,-1.0658 -0.1248,-0.05216 -0.23303,-0.10606 -0.35597,-0.16008 -0.7533,-0.327 -1.4691,-0.666 -2.149,-1.012 -0.2328,-0.12 -0.4592,-0.235 -0.6846,-0.356 -0.6091,-0.328 -1.1879,-0.664 -1.7356,-1.005 -0.1416,-0.088 -0.2916,-0.174 -0.4276,-0.261 -0.6538,-0.423 -1.2568,-0.856 -1.8156,-1.296 -0.1397,-0.111 -0.2661,-0.223 -0.4002,-0.335 -0.2422,-0.201 -0.4969,-0.401 -0.7204,-0.604 z"
     style="fill:#70208f;fill-opacity:1" />
  <path
     id="path102"
     d="m 45.343,0.63589 c -25.248,0 -42.843,7.3622 -42.843,13.971 0,6.6091 17.595,13.971 42.843,13.971 25.248,0 42.843,-7.3622 42.843,-13.971 0,-6.6091 -17.595,-13.971 -42.843,-13.971 z"
     style="fill:#70208f;fill-opacity:1" />
  <path
     id="path967"
     d="m 88.215,67.69299 c 0.35772,0.0052 0.71708,0.11348 1.0342,0.33701 0.8457,0.58863 1.0523,1.7512 0.4655,2.595 l -11.574,16.634 c -0.29804,0.42657 -0.7581,0.70856 -1.2722,0.77934 -0.08569,0.01302 -0.17525,0.01685 -0.25908,0.01685 -0.42844,-10e-7 -0.84214,-0.14979 -1.1774,-0.42548 l -8.9182,-7.3153 c -0.79726,-0.65011 -0.91291,-1.8291 -0.25908,-2.6245 0.65197,-0.79168 1.831,-0.9087 2.6245,-0.25487 l 7.3532,6.0368 10.426,-14.976 c 0.29432,-0.42285 0.73166,-0.68827 1.2006,-0.77303 0.11724,-0.02119 0.23673,-0.03122 0.35597,-0.02949 z"
     style="fill:#ffffff;fill-opacity:1" />
</svg>
